<svg width="122" height="69" viewBox="0 0 122 69" fill="none" xmlns="http://www.w3.org/2000/svg">
<path d="M34.9936 68.672C28.7216 68.672 22.9616 67.2 17.7136 64.256C12.4656 61.312 8.30563 57.248 5.23363 52.064C2.16163 46.816 0.625625 40.896 0.625625 34.304C0.625625 27.776 2.16163 21.92 5.23363 16.736C8.30563 11.488 12.4656 7.39199 17.7136 4.44799C22.9616 1.504 28.7216 0.0319996 34.9936 0.0319996C41.3296 0.0319996 47.0896 1.504 52.2736 4.44799C57.5216 7.39199 61.6496 11.488 64.6576 16.736C67.7296 21.92 69.2656 27.776 69.2656 34.304C69.2656 40.896 67.7296 46.816 64.6576 52.064C61.6496 57.248 57.5216 61.312 52.2736 64.256C47.0256 67.2 41.2656 68.672 34.9936 68.672ZM34.9936 56.672C39.0256 56.672 42.5776 55.776 45.6496 53.984C48.7216 52.128 51.1216 49.504 52.8496 46.112C54.5776 42.72 55.4416 38.784 55.4416 34.304C55.4416 29.824 54.5776 25.92 52.8496 22.592C51.1216 19.2 48.7216 16.608 45.6496 14.816C42.5776 13.024 39.0256 12.128 34.9936 12.128C30.9616 12.128 27.3776 13.024 24.2416 14.816C21.1696 16.608 18.7696 19.2 17.0416 22.592C15.3136 25.92 14.4496 29.824 14.4496 34.304C14.4496 38.784 15.3136 42.72 17.0416 46.112C18.7696 49.504 21.1696 52.128 24.2416 53.984C27.3776 55.776 30.9616 56.672 34.9936 56.672Z" fill="#11142D"/>
<path d="M95.7046 11.84V28.64H118.265V39.296H95.7046V57.056H121.145V68H82.2646V0.895994H121.145V11.84H95.7046Z" fill="#6C5DD3"/>
</svg>
