<svg width="721" height="102" viewBox="0 0 721 102" fill="none" xmlns="http://www.w3.org/2000/svg">
<path d="M34.478 75.672C28.206 75.672 22.446 74.2 17.198 71.256C11.95 68.312 7.79 64.248 4.718 59.064C1.646 53.816 0.11 47.896 0.11 41.304C0.11 34.776 1.646 28.92 4.718 23.736C7.79 18.488 11.95 14.392 17.198 11.448C22.446 8.504 28.206 7.032 34.478 7.032C40.814 7.032 46.574 8.504 51.758 11.448C57.006 14.392 61.134 18.488 64.142 23.736C67.214 28.92 68.75 34.776 68.75 41.304C68.75 47.896 67.214 53.816 64.142 59.064C61.134 64.248 57.006 68.312 51.758 71.256C46.51 74.2 40.75 75.672 34.478 75.672ZM34.478 63.672C38.51 63.672 42.062 62.776 45.134 60.984C48.206 59.128 50.606 56.504 52.334 53.112C54.062 49.72 54.926 45.784 54.926 41.304C54.926 36.824 54.062 32.92 52.334 29.592C50.606 26.2 48.206 23.608 45.134 21.816C42.062 20.024 38.51 19.128 34.478 19.128C30.446 19.128 26.862 20.024 23.726 21.816C20.654 23.608 18.254 26.2 16.526 29.592C14.798 32.92 13.934 36.824 13.934 41.304C13.934 45.784 14.798 49.72 16.526 53.112C18.254 56.504 20.654 59.128 23.726 60.984C26.862 62.776 30.446 63.672 34.478 63.672ZM102.133 32.856H92.821V75H79.189V32.856H73.141V21.816H79.189V19.128C79.189 12.6 81.045 7.8 84.757 4.72799C88.469 1.656 94.069 0.215998 101.557 0.407999V11.736C98.293 11.672 96.021 12.216 94.741 13.368C93.461 14.52 92.821 16.6 92.821 19.608V21.816H102.133V32.856ZM134.227 32.856H124.915V75H111.283V32.856H105.235V21.816H111.283V19.128C111.283 12.6 113.139 7.8 116.851 4.72799C120.563 1.656 126.163 0.215998 133.651 0.407999V11.736C130.387 11.672 128.115 12.216 126.835 13.368C125.555 14.52 124.915 16.6 124.915 19.608V21.816H134.227V32.856ZM191.377 47.256C191.377 49.176 191.249 50.904 190.993 52.44H152.113C152.433 56.28 153.777 59.288 156.145 61.464C158.513 63.64 161.425 64.728 164.881 64.728C169.873 64.728 173.425 62.584 175.537 58.296H190.033C188.497 63.416 185.553 67.64 181.201 70.968C176.849 74.232 171.505 75.864 165.169 75.864C160.049 75.864 155.441 74.744 151.345 72.504C147.313 70.2 144.145 66.968 141.841 62.808C139.601 58.648 138.48 53.848 138.48 48.408C138.48 42.904 139.601 38.072 141.841 33.912C144.081 29.752 147.217 26.552 151.249 24.312C155.281 22.072 159.921 20.952 165.169 20.952C170.225 20.952 174.737 22.04 178.705 24.216C182.737 26.392 185.841 29.496 188.017 33.528C190.257 37.496 191.377 42.072 191.377 47.256ZM177.457 43.416C177.393 39.96 176.145 37.208 173.713 35.16C171.281 33.048 168.305 31.992 164.785 31.992C161.457 31.992 158.641 33.016 156.337 35.064C154.097 37.048 152.721 39.832 152.209 43.416H177.457ZM213.627 30.072C215.355 27.256 217.595 25.048 220.347 23.448C223.163 21.848 226.363 21.048 229.947 21.048V35.16H226.395C222.171 35.16 218.971 36.152 216.795 38.136C214.683 40.12 213.627 43.576 213.627 48.504V75H200.187V21.816H213.627V30.072Z" fill="#11142D"/>
<path d="M273.314 18.84V35.64H295.874V46.296H273.314V64.056H298.754V75H259.874V7.89599H298.754V18.84H273.314ZM339.344 75L328.4 58.488L318.704 75H304.304L321.68 48.312L304.112 21.816H319.28L330.128 38.232L339.92 21.816H354.32L336.848 48.312L354.512 75H339.344ZM357.355 48.408C357.355 42.904 358.476 38.104 360.716 34.008C362.956 29.848 366.06 26.648 370.028 24.408C373.996 22.104 378.54 20.952 383.66 20.952C390.252 20.952 395.692 22.616 399.98 25.944C404.332 29.208 407.244 33.816 408.716 39.768H394.22C393.452 37.464 392.14 35.672 390.284 34.392C388.492 33.048 386.252 32.376 383.564 32.376C379.724 32.376 376.684 33.784 374.444 36.6C372.204 39.352 371.084 43.288 371.084 48.408C371.084 53.464 372.204 57.4 374.444 60.216C376.684 62.968 379.724 64.344 383.564 64.344C389.004 64.344 392.556 61.912 394.22 57.048H408.716C407.244 62.808 404.332 67.384 399.98 70.776C395.628 74.168 390.188 75.864 383.66 75.864C378.54 75.864 373.996 74.744 370.028 72.504C366.06 70.2 362.956 67 360.716 62.904C358.476 58.744 357.355 53.912 357.355 48.408ZM447.514 21.048C451.546 21.048 455.13 21.944 458.266 23.736C461.402 25.464 463.834 28.056 465.562 31.512C467.354 34.904 468.25 39 468.25 43.8V75H454.81V45.624C454.81 41.4 453.754 38.168 451.642 35.928C449.53 33.624 446.65 32.472 443.002 32.472C439.29 32.472 436.346 33.624 434.17 35.928C432.058 38.168 431.002 41.4 431.002 45.624V75H417.562V3.96H431.002V28.44C432.73 26.136 435.034 24.344 437.914 23.064C440.794 21.72 443.994 21.048 447.514 21.048ZM476.574 48.216C476.574 42.84 477.63 38.072 479.742 33.912C481.918 29.752 484.83 26.552 488.478 24.312C492.19 22.072 496.318 20.952 500.862 20.952C504.83 20.952 508.286 21.752 511.23 23.352C514.238 24.952 516.638 26.968 518.43 29.4V21.816H531.966V75H518.43V67.224C516.702 69.72 514.302 71.8 511.23 73.464C508.222 75.064 504.734 75.864 500.766 75.864C496.286 75.864 492.19 74.712 488.478 72.408C484.83 70.104 481.918 66.872 479.742 62.712C477.63 58.488 476.574 53.656 476.574 48.216ZM518.43 48.408C518.43 45.144 517.79 42.36 516.51 40.056C515.23 37.688 513.502 35.896 511.326 34.68C509.15 33.4 506.814 32.76 504.318 32.76C501.822 32.76 499.518 33.368 497.406 34.584C495.294 35.8 493.566 37.592 492.222 39.96C490.942 42.264 490.302 45.016 490.302 48.216C490.302 51.416 490.942 54.232 492.222 56.664C493.566 59.032 495.294 60.856 497.406 62.136C499.582 63.416 501.886 64.056 504.318 64.056C506.814 64.056 509.15 63.448 511.326 62.232C513.502 60.952 515.23 59.16 516.51 56.856C517.79 54.488 518.43 51.672 518.43 48.408ZM573.565 21.048C579.901 21.048 585.021 23.064 588.925 27.096C592.829 31.064 594.781 36.632 594.781 43.8V75H581.341V45.624C581.341 41.4 580.285 38.168 578.173 35.928C576.061 33.624 573.181 32.472 569.533 32.472C565.821 32.472 562.877 33.624 560.701 35.928C558.589 38.168 557.533 41.4 557.533 45.624V75H544.093V21.816H557.533V28.44C559.325 26.136 561.597 24.344 564.349 23.064C567.165 21.72 570.237 21.048 573.565 21.048ZM627.394 20.952C631.362 20.952 634.85 21.752 637.858 23.352C640.866 24.888 643.234 26.904 644.962 29.4V21.816H658.498V75.384C658.498 80.312 657.506 84.696 655.522 88.536C653.538 92.44 650.562 95.512 646.594 97.752C642.626 100.056 637.826 101.208 632.194 101.208C624.642 101.208 618.434 99.448 613.57 95.928C608.77 92.408 606.05 87.608 605.41 81.528H618.754C619.458 83.96 620.962 85.88 623.266 87.288C625.634 88.76 628.482 89.496 631.81 89.496C635.714 89.496 638.882 88.312 641.314 85.944C643.746 83.64 644.962 80.12 644.962 75.384V67.128C643.234 69.624 640.834 71.704 637.762 73.368C634.754 75.032 631.298 75.864 627.394 75.864C622.914 75.864 618.818 74.712 615.106 72.408C611.394 70.104 608.45 66.872 606.273 62.712C604.161 58.488 603.105 53.656 603.105 48.216C603.105 42.84 604.161 38.072 606.273 33.912C608.45 29.752 611.362 26.552 615.01 24.312C618.722 22.072 622.85 20.952 627.394 20.952ZM644.962 48.408C644.962 45.144 644.322 42.36 643.042 40.056C641.762 37.688 640.034 35.896 637.858 34.68C635.682 33.4 633.346 32.76 630.85 32.76C628.354 32.76 626.05 33.368 623.938 34.584C621.826 35.8 620.098 37.592 618.754 39.96C617.474 42.264 616.834 45.016 616.834 48.216C616.834 51.416 617.474 54.232 618.754 56.664C620.098 59.032 621.826 60.856 623.938 62.136C626.114 63.416 628.418 64.056 630.85 64.056C633.346 64.056 635.682 63.448 637.858 62.232C640.034 60.952 641.762 59.16 643.042 56.856C644.322 54.488 644.962 51.672 644.962 48.408ZM720.064 47.256C720.064 49.176 719.936 50.904 719.68 52.44H680.8C681.12 56.28 682.464 59.288 684.832 61.464C687.2 63.64 690.112 64.728 693.568 64.728C698.56 64.728 702.112 62.584 704.224 58.296H718.72C717.184 63.416 714.24 67.64 709.888 70.968C705.536 74.232 700.192 75.864 693.856 75.864C688.736 75.864 684.128 74.744 680.032 72.504C676 70.2 672.832 66.968 670.528 62.808C668.288 58.648 667.168 53.848 667.168 48.408C667.168 42.904 668.288 38.072 670.528 33.912C672.768 29.752 675.904 26.552 679.936 24.312C683.968 22.072 688.608 20.952 693.856 20.952C698.912 20.952 703.424 22.04 707.392 24.216C711.424 26.392 714.528 29.496 716.704 33.528C718.944 37.496 720.064 42.072 720.064 47.256ZM706.144 43.416C706.08 39.96 704.832 37.208 702.4 35.16C699.968 33.048 696.992 31.992 693.472 31.992C690.144 31.992 687.328 33.016 685.024 35.064C682.784 37.048 681.408 39.832 680.896 43.416H706.144Z" fill="#6C5DD3"/>
</svg>
