<?xml version="1.0" standalone="no"?>
<!DOCTYPE svg PUBLIC "-//W3C//DTD SVG 20010904//EN"
 "http://www.w3.org/TR/2001/REC-SVG-20010904/DTD/svg10.dtd">
<svg version="1.0" xmlns="http://www.w3.org/2000/svg"
 width="440.000000pt" height="440.000000pt" viewBox="0 0 440.000000 440.000000"
 preserveAspectRatio="xMidYMid meet">
<metadata>
Created by potrace 1.14, written by Peter Selinger 2001-2017
</metadata>
<g transform="translate(0.000000,440.000000) scale(0.100000,-0.100000)"
fill="#000000" stroke="none">
<path d="M2239 4378 c-41 -11 -63 -30 -234 -209 -66 -69 -207 -216 -314 -327
-107 -111 -202 -215 -211 -230 -24 -40 -31 -89 -19 -136 11 -44 41 -75 444
-461 109 -104 216 -207 236 -227 68 -67 124 -84 198 -62 101 30 152 141 107
236 -14 29 -367 383 -408 409 -11 7 3 13 60 24 68 14 90 16 222 19 153 5 247
-6 370 -40 552 -154 927 -658 914 -1229 -3 -133 -10 -191 -40 -308 -43 -171
-105 -306 -211 -463 -80 -119 -82 -193 -7 -268 52 -52 130 -63 201 -30 51 25
150 166 230 328 216 440 236 933 57 1381 -112 280 -329 543 -595 723 -157 106
-424 210 -609 237 -25 4 -70 11 -100 15 -60 9 -353 5 -410 -5 -35 -7 -35 -7
-15 13 81 77 330 346 342 369 9 15 16 48 16 73 1 118 -108 200 -224 168z"/>
<path d="M890 3338 c-56 -16 -85 -43 -156 -150 -150 -227 -257 -522 -281 -776
-12 -129 -5 -379 12 -442 2 -8 7 -31 10 -50 3 -19 15 -69 26 -110 11 -41 22
-82 24 -90 5 -21 52 -135 81 -195 136 -286 384 -545 671 -701 133 -73 358
-151 488 -169 22 -3 65 -9 95 -14 60 -10 363 -7 420 4 l35 7 -46 -46 c-118
-118 -305 -320 -318 -343 -7 -14 -13 -47 -14 -73 -1 -117 111 -202 223 -169
42 13 84 52 311 290 30 31 139 145 243 253 105 108 199 211 209 229 18 29 22
60 16 142 -2 21 -106 126 -434 440 -103 99 -206 198 -229 221 -81 80 -130 100
-207 80 -27 -7 -61 -23 -74 -36 -54 -51 -73 -147 -41 -207 12 -24 376 -384
410 -405 6 -4 8 -8 4 -9 -5 -1 -11 -2 -15 -3 -11 -3 -95 -19 -118 -23 -51 -8
-305 -11 -350 -3 -140 24 -171 31 -270 66 -85 30 -187 81 -263 131 -82 54 -97
67 -200 170 -191 191 -308 430 -345 706 -45 332 36 661 238 961 56 83 60 93
60 146 0 46 -5 64 -28 97 -41 60 -119 89 -187 71z"/>
</g>
</svg>
